<svg width="258" height="98" viewBox="0 0 258 98" fill="none" xmlns="http://www.w3.org/2000/svg">
<path d="M152.912 43.4087L154.183 43.6784L149.714 57.8543H109.267V56.429H111.231C113.44 56.429 115.019 55.71 115.969 54.2718C116.509 53.45 116.778 51.5496 116.778 48.5706V14.8642C116.778 11.6027 116.419 9.56106 115.7 8.73927C114.698 7.6093 113.209 7.04432 111.231 7.04432H109.267V5.61902H132.919V7.04432C130.145 7.01864 128.194 7.27545 127.064 7.81475C125.959 8.35405 125.202 9.0346 124.791 9.8564C124.38 10.6782 124.174 12.6428 124.174 15.7502V48.5706C124.174 50.7022 124.38 52.166 124.791 52.9621C125.099 53.5014 125.574 53.8995 126.216 54.1563C126.858 54.4131 128.861 54.5415 132.225 54.5415H136.039C140.045 54.5415 142.857 54.2461 144.475 53.6555C146.093 53.0648 147.57 52.0247 148.905 50.5352C150.241 49.02 151.576 46.6445 152.912 43.4087Z" fill="#C4DCFF"/>
<path d="M175.639 21.5284C180.981 21.5284 185.27 23.5573 188.506 27.6149C191.253 31.0818 192.627 35.0624 192.627 39.5566C192.627 42.7153 191.87 45.9126 190.355 49.1485C188.839 52.3843 186.746 54.824 184.076 56.4676C181.43 58.1112 178.477 58.9329 175.216 58.9329C169.9 58.9329 165.675 56.8143 162.542 52.5769C159.897 49.0072 158.574 45.001 158.574 40.5581C158.574 37.3223 159.37 34.1122 160.963 30.9277C162.581 27.7176 164.699 25.3549 167.319 23.8397C169.938 22.2989 172.712 21.5284 175.639 21.5284ZM174.445 24.0324C173.084 24.0324 171.71 24.4433 170.323 25.265C168.962 26.0612 167.858 27.4736 167.011 29.5024C166.163 31.5312 165.739 34.1379 165.739 37.3223C165.739 42.4585 166.754 46.8885 168.783 50.6123C170.837 54.336 173.534 56.1979 176.872 56.1979C179.363 56.1979 181.418 55.1707 183.036 53.1162C184.653 51.0617 185.462 47.5305 185.462 42.5227C185.462 36.2566 184.114 31.3258 181.418 27.7304C179.594 25.265 177.27 24.0324 174.445 24.0324Z" fill="#C4DCFF"/>
<path d="M215.086 21.5284C220.427 21.5284 224.716 23.5573 227.952 27.6149C230.7 31.0818 232.074 35.0624 232.074 39.5566C232.074 42.7153 231.316 45.9126 229.801 49.1485C228.286 52.3843 226.193 54.824 223.522 56.4676C220.877 58.1112 217.923 58.9329 214.662 58.9329C209.346 58.9329 205.121 56.8143 201.988 52.5769C199.343 49.0072 198.02 45.001 198.02 40.5581C198.02 37.3223 198.817 34.1122 200.409 30.9277C202.027 27.7176 204.145 25.3549 206.765 23.8397C209.384 22.2989 212.158 21.5284 215.086 21.5284ZM213.891 24.0324C212.53 24.0324 211.156 24.4433 209.77 25.265C208.408 26.0612 207.304 27.4736 206.457 29.5024C205.609 31.5312 205.185 34.1379 205.185 37.3223C205.185 42.4585 206.2 46.8885 208.229 50.6123C210.283 54.336 212.98 56.1979 216.318 56.1979C218.809 56.1979 220.864 55.1707 222.482 53.1162C224.1 51.0617 224.909 47.5305 224.909 42.5227C224.909 36.2566 223.56 31.3258 220.864 27.7304C219.04 25.265 216.716 24.0324 213.891 24.0324Z" fill="#C4DCFF"/>
<path d="M247.521 10.9735V22.5685H255.764V25.265H247.521V48.1469C247.521 50.4325 247.842 51.9734 248.484 52.7695C249.151 53.5656 249.999 53.9637 251.026 53.9637C251.874 53.9637 252.695 53.7068 253.492 53.1932C254.288 52.6539 254.904 51.8706 255.341 50.8434H256.843C255.944 53.3602 254.673 55.2606 253.029 56.5446C251.386 57.803 249.691 58.4322 247.944 58.4322C246.763 58.4322 245.607 58.1112 244.478 57.4691C243.348 56.8014 242.513 55.8641 241.974 54.657C241.434 53.4244 241.165 51.5368 241.165 48.9944V25.265H235.579V23.9938C236.991 23.4288 238.43 22.4786 239.893 21.1432C241.383 19.7821 242.706 18.1771 243.861 16.328C244.452 15.3521 245.274 13.5673 246.327 10.9735H247.521Z" fill="#C4DCFF"/>
<path d="M110.117 92.041V73.2383H122.903V77.4038H115.092V80.3544H121.746V84.5199H115.092V87.8755H123.192V92.041H110.117Z" fill="#F8F9FF"/>
<path d="M127.549 92.041L132.38 84.5199L127.838 77.5774H133.161L134.347 79.6023C134.559 80.0073 134.79 80.4219 135.041 80.8462C135.311 81.2704 135.552 81.6851 135.764 82.09H135.88C136.034 81.6851 136.208 81.2704 136.4 80.8462C136.593 80.4219 136.767 80.0073 136.921 79.6023L137.876 77.5774H143.054L138.483 85.0985L143.314 92.041H137.991L136.661 90.0161C136.41 89.6111 136.15 89.1965 135.88 88.7722C135.61 88.348 135.349 87.9333 135.099 87.5284H134.983C134.79 87.9333 134.588 88.348 134.376 88.7722C134.183 89.1772 133.99 89.5918 133.797 90.0161L132.727 92.041H127.549Z" fill="#F8F9FF"/>
<path d="M155.741 92.3881C154.604 92.3881 153.533 92.2242 152.531 91.8964C151.547 91.5492 150.689 91.0575 149.956 90.4211C149.242 89.7654 148.674 88.9651 148.249 88.0201C147.844 87.0752 147.642 86.0049 147.642 84.8092C147.642 83.6135 147.873 82.5432 148.336 81.5983C148.799 80.6533 149.416 79.8627 150.187 79.2263C150.978 78.5706 151.884 78.0788 152.907 77.751C153.929 77.4038 154.999 77.2303 156.117 77.2303C157.255 77.2303 158.297 77.4038 159.242 77.751C160.187 78.0981 160.968 78.5609 161.585 79.1395L159.328 82.2058C158.788 81.8393 158.277 81.5886 157.795 81.4537C157.332 81.2994 156.87 81.2222 156.407 81.2222C155.308 81.2222 154.42 81.5501 153.745 82.2058C153.07 82.8422 152.733 83.71 152.733 84.8092C152.733 85.9084 153.061 86.7859 153.717 87.4416C154.372 88.078 155.211 88.3962 156.233 88.3962C156.947 88.3962 157.593 88.2708 158.171 88.0201C158.75 87.7694 159.29 87.4898 159.791 87.1812L161.758 90.3054C160.852 91.0382 159.859 91.5685 158.779 91.8964C157.718 92.2242 156.706 92.3881 155.741 92.3881Z" fill="#F8F9FF"/>
<path d="M166.78 92.041V71.9077H171.756V76.5939L171.466 79.1395H171.582C172.045 78.6766 172.653 78.2427 173.405 77.8378C174.157 77.4328 175.073 77.2303 176.153 77.2303C177.734 77.2303 178.891 77.7703 179.624 78.8502C180.357 79.9109 180.723 81.3379 180.723 83.1314V92.041H175.748V83.7678C175.748 82.9579 175.622 82.3697 175.372 82.0033C175.14 81.6369 174.706 81.4537 174.07 81.4537C173.607 81.4537 173.202 81.5501 172.855 81.7429C172.508 81.9358 172.141 82.2058 171.756 82.5529V92.041H166.78Z" fill="#F8F9FF"/>
<path d="M190.258 92.3881C189.506 92.3881 188.84 92.2724 188.262 92.041C187.683 91.7903 187.192 91.4625 186.787 91.0575C186.382 90.6525 186.073 90.18 185.861 89.64C185.668 89.1001 185.572 88.5312 185.572 87.9333C185.572 87.1234 185.736 86.4098 186.063 85.7927C186.411 85.1756 186.941 84.6549 187.654 84.2307C188.387 83.7871 189.332 83.44 190.489 83.1893C191.646 82.9386 193.054 82.765 194.713 82.6686C194.616 82.1479 194.327 81.7719 193.845 81.5404C193.382 81.2897 192.746 81.1644 191.936 81.1644C191.319 81.1644 190.682 81.2704 190.026 81.4826C189.39 81.6754 188.638 81.9743 187.77 82.3793L186.034 79.1395C187.134 78.5224 188.252 78.0499 189.39 77.722C190.528 77.3942 191.704 77.2303 192.919 77.2303C193.941 77.2303 194.867 77.3653 195.696 77.6353C196.545 77.886 197.258 78.2909 197.837 78.8502C198.435 79.3902 198.888 80.0941 199.196 80.9619C199.524 81.8104 199.688 82.8229 199.688 83.9992V92.041H195.638L195.291 90.5368H195.175C194.462 91.0575 193.691 91.501 192.861 91.8674C192.032 92.2146 191.164 92.3881 190.258 92.3881ZM191.878 88.5697C192.456 88.5697 192.977 88.4637 193.44 88.2515C193.903 88.0201 194.327 87.7598 194.713 87.4705V85.6192C193.826 85.6577 193.093 85.7349 192.514 85.8506C191.955 85.947 191.511 86.082 191.184 86.2556C190.856 86.4291 190.624 86.622 190.489 86.8341C190.374 87.0462 190.316 87.2777 190.316 87.5284C190.316 88.2226 190.836 88.5697 191.878 88.5697Z" fill="#F8F9FF"/>
<path d="M204.942 92.041V77.5774H208.991L209.338 79.313H209.454C210.033 78.7538 210.717 78.2717 211.508 77.8667C212.299 77.4424 213.224 77.2303 214.285 77.2303C215.886 77.2303 217.052 77.7703 217.785 78.8502C218.518 79.9109 218.884 81.3379 218.884 83.1314V92.041H213.909V83.7678C213.909 82.9579 213.784 82.3697 213.533 82.0033C213.302 81.6369 212.868 81.4537 212.231 81.4537C211.768 81.4537 211.363 81.5501 211.016 81.7429C210.669 81.9358 210.303 82.2058 209.917 82.5529V92.041H204.942Z" fill="#F8F9FF"/>
<path d="M229.952 98C229.046 98 228.197 97.9325 227.407 97.7975C226.635 97.6818 225.951 97.4793 225.353 97.19C224.755 96.9008 224.283 96.5247 223.935 96.0619C223.608 95.6183 223.444 95.0687 223.444 94.413C223.444 93.2559 224.176 92.3303 225.642 91.636V91.5203C225.237 91.2503 224.89 90.9225 224.601 90.5368C224.331 90.1511 224.196 89.6497 224.196 89.0326C224.196 88.5312 224.36 88.0394 224.688 87.5573C225.015 87.0752 225.43 86.6605 225.931 86.3134V86.1977C225.372 85.8506 224.9 85.3588 224.514 84.7224C224.148 84.086 223.964 83.3436 223.964 82.495C223.964 81.6079 224.138 80.8365 224.485 80.1809C224.832 79.5059 225.305 78.9563 225.902 78.532C226.5 78.0885 227.175 77.7606 227.927 77.5485C228.699 77.3364 229.509 77.2303 230.357 77.2303C231.264 77.2303 232.083 77.346 232.816 77.5774H238.659V81.1644H236.056C236.152 81.3379 236.239 81.5597 236.316 81.8297C236.413 82.0997 236.461 82.3793 236.461 82.6686C236.461 83.5171 236.307 84.2499 235.998 84.8671C235.689 85.4649 235.256 85.9566 234.696 86.3423C234.156 86.728 233.51 87.0173 232.758 87.2102C232.025 87.3837 231.225 87.4705 230.357 87.4705C229.798 87.4705 229.191 87.403 228.535 87.268C228.361 87.403 228.236 87.5284 228.159 87.6441C228.101 87.7405 228.072 87.8948 228.072 88.1069C228.072 88.4347 228.246 88.6662 228.593 88.8012C228.94 88.9169 229.518 88.9747 230.328 88.9747H232.787C234.716 88.9747 236.201 89.2736 237.242 89.8715C238.283 90.45 238.804 91.4046 238.804 92.7352C238.804 93.5259 238.592 94.2395 238.168 94.8759C237.763 95.5315 237.174 96.0908 236.403 96.5536C235.632 97.0165 234.696 97.3732 233.597 97.6239C232.517 97.8746 231.302 98 229.952 98ZM230.357 84.5199C230.839 84.5199 231.254 84.356 231.601 84.0282C231.948 83.7003 232.122 83.1893 232.122 82.495C232.122 81.8201 231.948 81.3283 231.601 81.0197C231.254 80.6919 230.839 80.528 230.357 80.528C229.875 80.528 229.46 80.6919 229.113 81.0197C228.786 81.3283 228.622 81.8201 228.622 82.495C228.622 83.1893 228.786 83.7003 229.113 84.0282C229.46 84.356 229.875 84.5199 230.357 84.5199ZM230.733 94.9337C231.717 94.9337 232.517 94.8084 233.134 94.5577C233.771 94.3262 234.089 94.008 234.089 93.6031C234.089 93.2174 233.896 92.9763 233.51 92.8799C233.125 92.7835 232.565 92.7352 231.833 92.7352H230.386C229.827 92.7352 229.383 92.716 229.056 92.6774C228.728 92.6581 228.438 92.6195 228.188 92.5617C227.937 92.7352 227.754 92.8992 227.638 93.0534C227.522 93.2077 227.465 93.3909 227.465 93.6031C227.465 94.0659 227.763 94.4034 228.361 94.6155C228.959 94.8276 229.75 94.9337 230.733 94.9337Z" fill="#F8F9FF"/>
<path d="M250.797 92.3881C249.66 92.3881 248.589 92.2242 247.587 91.8964C246.603 91.5492 245.745 91.0575 245.012 90.4211C244.298 89.7654 243.73 88.9651 243.305 88.0201C242.9 87.0752 242.698 86.0049 242.698 84.8092C242.698 83.6328 242.91 82.5722 243.334 81.6272C243.759 80.6823 244.318 79.8916 245.012 79.2552C245.726 78.5995 246.536 78.0981 247.442 77.751C248.368 77.4038 249.313 77.2303 250.277 77.2303C251.415 77.2303 252.408 77.4135 253.256 77.7799C254.124 78.1463 254.847 78.6477 255.426 79.2841C256.004 79.9205 256.438 80.663 256.728 81.5115C257.017 82.36 257.161 83.2664 257.161 84.2307C257.161 84.6742 257.133 85.0888 257.075 85.4745C257.036 85.8602 256.998 86.1399 256.959 86.3134H247.673C247.885 87.1234 248.31 87.7116 248.946 88.078C249.583 88.4444 250.431 88.6276 251.492 88.6276C252.07 88.6276 252.63 88.5601 253.169 88.4251C253.729 88.2708 254.327 88.049 254.963 87.7598L256.583 90.7103C255.715 91.2696 254.76 91.6939 253.719 91.9831C252.678 92.2531 251.704 92.3881 250.797 92.3881ZM250.45 80.9908C249.023 80.9908 248.107 81.6851 247.702 83.0736H252.764C252.552 81.6851 251.781 80.9908 250.45 80.9908Z" fill="#F8F9FF"/>
<path d="M23.6346 53.7819L27.6263 63.0257L31.5129 53.7819L28.8868 55.7777V24.8951L31.5129 22.2691V13.1304L27.6263 17.0169L23.6346 13.1304V22.2691L26.2607 24.8951V55.7777L23.6346 53.7819Z" fill="white"/>
<path d="M2.62607 27.5212H1.36556V64.2862C1.36556 68.593 4.83197 72.0594 9.13872 72.0594H13.2354C17.5421 72.0594 21.0086 68.593 21.0086 64.2862V27.5212H17.0169V26.1557L19.643 23.5296V15.6514L15.7564 19.643L11.7648 15.6514V23.5296L14.3909 26.1557V27.5212H10.5043V11.0295L13.1303 8.40342V0L9.24377 3.88658L5.25214 0V8.40342L7.87821 11.0295V11.7648L3.88658 15.7564L0 11.7648V19.643L2.62607 22.2691V27.5212ZM5.25214 22.2691L7.87821 19.643V27.5212H5.25214V22.2691ZM3.99163 30.1473H18.4875V36.1347L3.99163 48.3197V30.1473ZM3.99163 51.7861L18.4875 39.6011V46.639L3.99163 56.513V51.7861ZM3.99163 59.7694L18.4875 49.7903V64.3912C18.4875 67.2274 16.1766 69.5383 13.3404 69.5383H9.24377C6.40761 69.5383 4.09667 67.2274 4.09667 64.3912V59.7694H3.99163Z" fill="white"/>
<path d="M40.3363 70.0636L39.3909 70.6938L39.8111 71.7442C40.6514 73.635 41.2817 76.3661 41.7019 79.2023C38.5506 79.0972 35.1892 79.0972 31.9329 79.4124H31.7228C29.5169 79.6225 27.2059 79.9376 24.5799 80.0426C13.6554 80.7779 9.13859 78.3619 5.46209 76.4712C4.62175 76.051 3.57132 76.051 2.62593 76.4712C1.78559 76.8913 1.15534 77.7317 0.94525 78.7821L0.20995 84.3494C-0.105179 86.5553 1.26038 88.7612 3.46628 89.2864C6.19739 90.0217 8.9285 90.3368 12.8151 90.3368C15.9664 90.3368 19.853 90.1267 25.2101 89.8116C28.0463 89.6015 30.6724 89.3914 32.9833 89.0763C36.3447 88.7612 39.706 88.7612 42.7523 88.9713C42.7523 90.0217 42.7523 90.862 42.7523 91.2822L42.6472 92.6478L56.0927 94.0133L56.1978 92.6478C56.6179 86.7654 59.244 76.9964 61.5549 72.6896L62.0802 71.7442L61.2398 71.114C56.0927 66.7022 46.7439 66.282 40.3363 70.0636ZM32.7732 86.3452C30.4623 86.5553 27.9412 86.8704 25.1051 87.0805C13.5504 87.8158 8.82346 87.9208 4.20158 86.6603C3.25619 86.4502 2.73098 85.5048 2.83602 84.6645L3.57132 79.0972C3.57132 78.8871 3.67636 78.7821 3.78141 78.7821C3.78141 78.7821 3.88645 78.7821 3.99149 78.7821C4.09653 78.7821 4.09653 78.7821 4.20158 78.7821C7.98312 80.7779 13.0252 83.404 24.6849 82.6687C27.311 82.4586 29.6219 82.2485 31.9329 82.0384H32.143C35.2942 81.7233 38.8657 81.7233 42.017 81.8283C42.2271 83.2989 42.4372 84.8746 42.5422 86.2401C39.496 86.0301 36.1346 85.925 32.7732 86.3452ZM53.6767 90.9671L45.3784 90.1267C45.3784 89.8116 45.3784 89.3914 45.3784 88.9713L45.2733 87.5007C45.2733 86.8704 45.1683 86.1351 45.0632 85.3998C44.6431 80.988 43.8027 75.4207 42.5422 71.8493C47.5843 69.4333 54.412 69.6434 58.6137 72.3745C56.6179 76.8913 54.412 85.0847 53.6767 90.9671Z" fill="white"/>
<path d="M40.3363 58.7189C40.4413 58.7189 40.6514 58.824 40.7564 58.824C41.1766 58.824 41.5968 58.6139 41.8069 58.2988C41.8069 58.2988 43.4875 56.0929 46.0086 55.1475V57.7735C45.9035 59.5593 47.164 61.0299 49.475 62.0803C50.6304 62.6055 51.891 62.8156 53.0464 62.8156C53.5716 62.8156 54.0969 62.8156 54.6221 62.7105C55.3574 62.6055 57.2481 61.7652 57.6683 61.345C59.244 59.9794 60.1893 58.929 60.3994 56.408V15.7564C60.2944 13.9707 59.454 12.185 57.9834 10.7144C56.4078 9.13872 50.6304 4.72692 40.0211 10.7144C39.601 10.9244 39.3909 11.3446 39.3909 11.8698V19.4329C39.3909 19.538 39.3909 19.748 39.4959 19.8531L44.748 35.1893L39.4959 49.16C39.3909 49.2651 39.3909 49.4752 39.3909 49.5802V57.4584C39.3909 58.0887 39.706 58.6139 40.3363 58.7189ZM57.7734 56.3029C57.6683 57.6685 57.3532 58.0887 55.9876 59.2441C55.6725 59.4542 54.6221 59.8744 54.3069 59.9794C53.7817 59.9794 53.1515 60.0845 52.4162 59.9794V54.9374H49.7901V59.1391C48.9498 58.6139 48.4245 58.0887 48.4245 57.5635V57.4584V40.9667C50.0002 41.4919 51.5758 41.807 53.1515 41.807C54.6221 41.807 56.0927 41.5969 57.5633 41.0717L57.7734 56.3029ZM57.7734 38.3406C54.9372 39.4961 51.7859 39.4961 48.9498 38.3406L48.5296 38.1305V35.7145C50.1052 36.2398 51.6809 36.5549 53.2565 36.5549C54.7271 36.5549 56.1977 36.3448 57.6683 35.8196L57.7734 38.3406ZM57.7734 33.0885C54.9372 34.2439 51.7859 34.2439 48.9498 33.0885L48.5296 32.8784V20.1682C49.1598 20.4833 50.0002 20.7985 50.9456 21.0086C52.101 21.3237 53.0464 21.4287 53.8868 21.4287V27.3111H56.5128V21.1136C56.933 21.0086 57.3532 20.7985 57.6683 20.5884L57.7734 33.0885ZM42.0169 19.2228V12.6051C50.5254 7.98325 54.9372 11.3446 56.0927 12.5001C57.5633 13.9707 58.1935 16.0715 57.4582 17.3321C56.7229 18.6976 54.517 19.1178 51.6809 18.3825C49.2649 17.7522 48.6346 17.0169 48.6346 16.8068C48.6346 16.4917 49.0548 15.7564 50.0002 15.2312C51.2607 14.4959 52.4162 14.3909 52.7313 14.6009C52.8363 14.6009 52.8363 14.9161 52.7313 15.5463L55.3574 16.0715C55.7775 13.9707 54.8322 12.9203 54.2019 12.5001C52.7313 11.4497 50.3153 11.9749 48.6346 13.0253C46.8489 14.0757 45.9035 15.5463 46.0086 17.0169V30.7775L42.0169 19.2228ZM42.0169 49.8953L46.0086 39.286V52.3113C44.4329 52.7315 43.0674 53.5718 42.0169 54.3071V49.8953Z" fill="white"/>
<path d="M94.5385 26.2607H84.0342V18.3825C85.7149 17.122 86.6603 15.2312 86.6603 13.1303C86.6603 9.55889 83.7191 6.51265 80.0426 6.51265C76.3661 6.51265 73.5299 9.45385 73.5299 13.1303C73.5299 15.2312 74.4753 17.122 76.156 18.3825V26.2607H65.6517V33.9288L73.5299 35.3994L72.2694 74.6854V75.0006L80.1476 93.9083L88.0259 75.0006L86.6603 35.3994L94.5385 33.8238V26.2607ZM80.1476 87.1855L74.8955 74.5804L76.156 35.9246L80.1476 36.765L84.1393 35.9246L85.3998 74.5804L80.1476 87.1855ZM91.9124 31.7229L80.0426 34.0339L68.2778 31.7229V28.8868H78.7821V16.8068L78.1518 16.4917C76.8913 15.7564 76.156 14.4959 76.156 13.1303C76.156 10.9245 77.9417 9.13872 80.1476 9.13872C82.3535 9.13872 84.1393 10.9245 84.1393 13.1303C84.1393 14.4959 83.404 15.7564 82.1434 16.4917L81.5132 16.9119V28.8868H92.0175V31.7229H91.9124Z" fill="white"/>
</svg>
