<svg width="21" height="21" viewBox="0 0 21 21" fill="none" xmlns="http://www.w3.org/2000/svg">
<path d="M10.389 12.4948L5.92994 16.9539L6.73728 17.7612L5.66084 18.0303L4.91488 17.2844C4.57044 17.7216 4.13624 18.2094 3.64251 18.7031C3.14882 19.1968 2.66101 19.631 2.22382 19.9754L2.43155 20.1832L2.16241 20.4523L1.89336 20.1832C1.86537 20.3801 1.77566 20.5699 1.62421 20.7214C1.25265 21.0929 0.650238 21.0929 0.278672 20.7214C-0.0928908 20.3498 -0.0928908 19.7474 0.278672 19.3758C0.430122 19.2244 0.619924 19.1347 0.816808 19.1067L0.547777 18.8377L0.816879 18.5685L1.02461 18.7762C1.36904 18.339 1.80328 17.8512 2.29698 17.3575C2.79067 16.8638 3.27848 16.4296 3.71568 16.0852L2.96978 15.3392L3.23887 14.2628L4.04617 15.0701L8.50525 10.6111L9.37986 11.4857L5.05535 15.8102L5.1899 15.9447L9.51441 11.6202L10.389 12.4948Z" fill="#80C2FF"/>
<path d="M10.7822 10.3525L11.6568 11.2271L20.8654 2.01837L21 6.10352e-05L18.9817 0.134601L9.77301 9.3433L10.6476 10.2179L19.9909 0.874654L20.1254 1.00921L10.7822 10.3525Z" fill="#80C2FF"/>
<path fill-rule="evenodd" clip-rule="evenodd" d="M2.01831 0.134554L16.9538 15.0701L17.7611 14.2628L18.0302 15.3392L17.2843 16.0851C17.7215 16.4295 18.2093 16.8638 18.703 17.3575C19.1967 17.8512 19.6309 18.339 19.9754 18.7762L19.3782 19.3733L19.3813 19.3703L20.1831 18.5685L20.4522 18.8376L20.1832 19.1066C20.3801 19.1346 20.5699 19.2243 20.7213 19.3758C21.0928 19.7473 21.0928 20.3498 20.7213 20.7213C20.3498 21.0928 19.7473 21.0928 19.3758 20.7213C19.2243 20.5699 19.1346 20.3801 19.1066 20.1832L18.8376 20.4522L18.5685 20.1831L19.3703 19.3813L19.3733 19.3782L18.7762 19.9754C18.339 19.6309 17.8512 19.1967 17.3575 18.703C16.8638 18.2093 16.4296 17.7215 16.0851 17.2843L15.3392 18.0303L14.2627 17.7611L15.0701 16.9538L0.134554 2.01831L0 0L2.01831 0.134554ZM15.9446 15.8101L1.00914 0.874547L0.874587 1.0091L15.8101 15.9446L15.9446 15.8101Z" fill="#C4DCFF"/>
</svg>
